<?xml version="1.0" standalone="no"?>
<!DOCTYPE svg PUBLIC "-//W3C//DTD SVG 20010904//EN"
 "http://www.w3.org/TR/2001/REC-SVG-20010904/DTD/svg10.dtd">
<svg version="1.0" xmlns="http://www.w3.org/2000/svg"
 width="590.000000pt" height="590.000000pt" viewBox="0 0 590.000000 590.000000"
 preserveAspectRatio="xMidYMid meet">
<metadata>
Created by potrace 1.14, written by Peter Selinger 2001-2017
</metadata>
<g transform="translate(0.000000,590.000000) scale(0.100000,-0.100000)"
fill="#000000" stroke="none">
<path d="M2919 5658 c-7 -12 -14 -25 -14 -28 -1 -6 -58 -118 -105 -205 -18
-33 -38 -67 -46 -76 -8 -8 -14 -19 -14 -23 0 -20 -179 -271 -266 -372 -89
-104 -290 -299 -359 -349 -16 -11 -33 -25 -39 -31 -22 -22 -156 -114 -166
-114 -6 0 -10 -5 -10 -10 0 -6 -8 -14 -17 -18 -10 -4 -43 -23 -73 -42 -30 -19
-58 -34 -62 -32 -5 1 -8 -2 -8 -6 0 -5 -33 -24 -72 -43 -40 -19 -75 -37 -78
-41 -3 -3 -18 -10 -33 -13 -16 -4 -31 -14 -34 -21 -3 -8 -9 -11 -14 -8 -5 3
-9 0 -9 -7 0 -7 -3 -10 -6 -6 -10 10 -108 -80 -156 -145 -37 -49 -89 -149 -82
-160 3 -4 1 -8 -4 -8 -5 0 -9 -6 -10 -12 -1 -15 -10 -53 -12 -53 -6 0 -10 -54
-11 -140 -2 -74 4 -123 21 -190 26 -106 94 -251 150 -319 26 -31 130 -136 136
-136 3 0 22 -13 42 -29 43 -34 176 -103 225 -116 4 -2 8 -4 10 -5 3 -3 28 -8
92 -16 68 -9 432 -10 441 -1 12 12 10 388 -2 404 -8 12 -41 14 -170 13 -87 0
-163 -1 -169 -1 -87 -5 -192 64 -267 174 -67 98 -83 155 -82 287 1 76 34 180
57 180 6 0 8 3 5 6 -7 6 106 122 137 141 21 13 140 80 214 120 172 94 388 281
501 433 14 19 32 41 40 50 17 19 20 24 90 136 27 45 50 87 50 93 0 6 4 11 9
11 5 0 12 14 16 30 4 17 10 30 15 30 4 0 11 12 15 27 3 15 15 47 26 70 55 122
117 392 120 531 2 62 -4 73 -22 40z"/>
<path d="M3134 5595 c7 -95 12 -144 22 -185 3 -14 7 -38 10 -55 3 -16 14 -55
24 -85 10 -30 24 -76 31 -102 7 -27 17 -48 21 -48 4 0 7 -3 7 -7 -1 -5 0 -11
1 -15 1 -5 3 -11 5 -15 14 -52 99 -215 163 -313 66 -102 109 -157 179 -229 29
-29 53 -56 53 -60 1 -3 22 -23 48 -43 26 -21 58 -48 72 -61 31 -29 137 -107
145 -107 6 0 66 -40 75 -50 3 -3 37 -21 75 -40 39 -19 72 -37 75 -40 3 -4 20
-13 38 -21 17 -8 32 -17 32 -21 0 -5 6 -8 14 -8 8 0 16 -3 18 -7 2 -5 18 -20
36 -35 19 -16 31 -28 29 -28 -3 0 11 -17 31 -38 30 -30 83 -117 71 -117 -1 0
3 -11 10 -24 12 -21 17 -141 8 -181 -9 -43 -42 -128 -58 -152 -11 -14 -19 -29
-19 -33 0 -3 -7 -14 -16 -23 -128 -139 -162 -154 -324 -152 -8 1 -34 -1 -58
-3 -24 -2 -45 0 -48 5 -3 5 -10 5 -17 1 -6 -3 -41 -6 -78 -5 -40 1 -70 -2 -74
-9 -6 -9 -9 -163 -6 -354 l1 -60 182 1 c243 1 314 9 398 43 39 16 70 26 70 22
0 -3 4 -1 8 5 4 5 24 18 45 27 20 10 37 22 37 27 0 6 5 10 11 10 23 0 140 104
199 176 51 63 147 250 135 262 -3 3 -1 10 4 16 5 6 12 26 15 44 3 17 9 47 13
65 13 61 7 222 -11 283 -28 99 -84 200 -144 262 -76 78 -108 101 -232 163
-108 54 -260 145 -271 161 -3 5 -9 9 -13 9 -6 -1 -46 22 -71 41 -5 5 -44 33
-85 65 -41 31 -102 79 -134 107 -58 50 -236 224 -236 231 0 2 -15 19 -32 37
-18 19 -44 49 -58 68 -14 18 -36 47 -50 65 -14 18 -36 47 -50 65 -14 18 -31
39 -37 46 -7 7 -13 15 -13 19 0 4 -13 26 -30 50 -16 24 -30 48 -30 54 0 6 -4
11 -10 11 -5 0 -10 7 -10 16 0 9 -6 22 -14 28 -8 6 -49 79 -91 161 -43 83 -82
155 -87 160 -7 7 -8 -21 -4 -80z"/>
<path d="M1932 3890 c-4 -3 -8 -94 -7 -203 0 -190 1 -198 20 -202 11 -2 511
-3 1110 -2 l1090 2 2 203 c1 150 -1 202 -10 203 -38 5 -2199 4 -2205 -1z"/>
<path d="M2529 3270 c0 -14 -1 -332 -2 -708 l-2 -682 50 -1 c125 -2 186 0 195
6 5 3 10 3 10 -2 0 -8 150 -6 158 2 8 8 8 1386 0 1398 -5 8 -68 12 -208 12
l-200 0 -1 -25z"/>
<path d="M3132 3286 c-7 -12 -7 -1394 0 -1402 6 -5 241 -9 263 -4 6 1 15 1 20
0 21 -4 118 0 124 5 7 8 8 1404 1 1406 -26 7 -403 2 -408 -5z"/>
<path d="M1522 2668 c3 -16 2 -28 -1 -28 -12 0 -6 -751 6 -758 15 -9 400 -8
410 1 4 4 7 92 7 195 0 155 2 189 15 198 10 8 58 10 151 7 199 -6 222 -6 229
5 9 14 6 390 -3 399 -4 4 -190 8 -412 8 l-406 0 4 -27z"/>
<path d="M3733 2686 c-8 -12 -7 -391 0 -403 4 -5 21 -8 39 -7 97 9 335 13 346
6 10 -7 13 -54 14 -206 0 -141 3 -196 11 -197 59 -6 400 -2 404 4 8 13 7 796
-1 804 -11 11 -807 10 -813 -1z"/>
<path d="M1485 1552 c-120 -3 -121 -4 -117 -53 4 -34 7 -40 23 -36 10 3 22 1
25 -4 3 -5 10 -7 15 -3 16 9 99 11 99 2 0 -5 5 -6 10 -3 6 3 10 0 11 -7 0 -7
1 -114 2 -238 l2 -224 50 3 c28 1 52 4 53 6 2 2 4 107 5 234 1 200 3 231 17
232 33 2 122 -1 129 -5 16 -10 33 14 36 53 l3 41 -76 1 c-43 0 -106 1 -142 2
-36 1 -101 1 -145 -1z"/>
<path d="M1931 1540 c-4 -8 -7 -84 -7 -168 1 -85 -2 -156 -6 -158 -4 -3 -4
-15 0 -27 4 -12 7 -59 7 -105 -1 -46 2 -85 7 -88 13 -8 144 -8 157 0 6 4 11 2
11 -4 0 -6 4 -9 8 -6 5 3 61 6 124 7 l116 1 0 47 1 46 -160 -2 -159 -2 0 74
c0 86 -18 77 152 77 118 0 128 4 120 58 l-4 28 -111 0 c-182 0 -163 -9 -159
72 2 44 8 70 15 71 7 0 75 2 152 2 l140 2 1 43 c1 24 -4 42 -10 42 -290 7
-388 4 -395 -10z"/>
<path d="M3731 1547 c-96 -20 -183 -104 -208 -201 -17 -65 -4 -196 19 -196 5
0 8 -6 8 -13 0 -7 9 -23 20 -35 12 -12 17 -22 13 -22 -11 0 58 -49 100 -71 20
-11 37 -17 37 -13 0 4 7 1 15 -6 11 -9 15 -9 15 -1 0 7 5 9 12 5 16 -10 128
-11 134 -2 3 5 9 6 14 3 4 -3 21 2 36 10 16 8 34 15 40 15 5 0 20 9 31 19 19
18 21 30 19 128 l-1 108 -50 1 -51 1 2 -76 c0 -42 -3 -83 -7 -92 -16 -31 -111
-43 -174 -21 -41 14 -118 79 -110 93 3 4 0 9 -6 11 -6 2 -11 32 -12 68 -2 71
22 134 58 154 11 6 25 17 33 24 7 6 16 12 20 13 4 0 16 2 27 5 45 9 81 12 90
6 6 -4 19 -8 29 -9 10 -2 37 -13 58 -26 37 -20 41 -21 53 -4 6 9 17 17 23 17
22 0 23 34 0 52 -35 27 -108 59 -118 53 -6 -4 -10 -3 -10 2 0 11 -106 11 -159
0z"/>
<path d="M2462 1449 c0 -55 -3 -103 -6 -106 -3 -3 -1 -14 4 -24 7 -11 7 -20 0
-24 -6 -4 -6 -15 0 -30 6 -15 6 -25 0 -25 -5 0 -5 -12 0 -30 5 -18 5 -32 -1
-36 -5 -3 -6 -10 -3 -16 4 -6 6 -45 5 -88 l-2 -79 33 -3 c18 -2 109 -1 203 2
168 5 169 5 168 28 0 12 -1 32 -2 45 -1 22 -3 22 -143 22 l-143 0 -2 153 c-1
83 -2 188 -3 232 l0 80 -54 0 -53 0 -1 -101z"/>
<path d="M3106 1518 c-7 -18 -30 -69 -51 -113 -58 -126 -65 -142 -65 -154 0
-6 -4 -11 -10 -11 -5 0 -9 -3 -8 -7 1 -5 -6 -25 -15 -47 -9 -21 -17 -42 -17
-46 0 -5 -4 -10 -10 -12 -5 -1 -11 -12 -13 -23 -1 -11 -10 -35 -20 -54 -26
-52 -23 -58 33 -60 48 -1 64 8 70 44 9 55 57 96 95 82 8 -4 17 -2 21 4 3 6 10
6 17 1 7 -5 21 -6 32 -2 11 4 32 4 48 -1 16 -5 27 -4 27 2 0 6 6 7 16 1 9 -5
24 -7 33 -5 13 3 25 -11 44 -51 15 -30 27 -59 27 -64 0 -5 25 -10 55 -11 49
-1 55 1 55 19 0 11 -4 20 -8 20 -5 0 -9 6 -9 13 0 6 -16 46 -36 87 -77 164
-91 195 -89 203 1 4 -3 7 -8 7 -5 0 -9 3 -8 8 1 4 -9 32 -22 62 -14 30 -24 58
-22 63 1 4 -2 7 -6 7 -4 0 -14 16 -21 35 -12 34 -14 35 -67 35 -51 0 -54 -2
-68 -32z m101 -158 c3 -14 9 -27 13 -30 6 -5 50 -108 50 -119 0 -4 -45 -7
-100 -7 -89 -1 -100 1 -94 15 4 9 12 31 18 49 6 17 15 32 19 32 5 0 5 5 2 10
-3 6 -1 10 6 10 7 0 10 3 6 6 -3 3 3 23 14 42 10 20 19 44 19 52 1 21 38 -28
47 -60z"/>
<path d="M4300 1453 c-25 -53 -45 -99 -46 -102 0 -3 -17 -42 -38 -86 -21 -44
-44 -96 -52 -115 -9 -19 -28 -61 -44 -92 -26 -53 -26 -79 0 -63 6 3 10 1 10
-5 0 -6 5 -8 13 -3 6 4 22 6 34 5 18 -3 27 7 47 53 14 30 26 60 26 65 0 6 11
8 25 6 14 -3 25 -1 25 3 0 4 25 4 56 1 30 -3 57 -4 59 0 2 3 30 3 62 0 l58 -5
30 -62 29 -63 52 0 c37 0 51 4 50 13 -3 13 -23 59 -79 177 -19 41 -45 98 -57
125 -12 28 -28 63 -36 79 -8 16 -14 35 -14 43 0 7 -4 13 -10 13 -5 0 -10 6
-10 13 0 7 -9 31 -20 54 -19 39 -21 40 -72 42 l-54 1 -44 -97z m110 -43 c0 -8
49 -121 71 -162 21 -41 13 -47 -66 -44 -41 2 -75 0 -75 -4 0 -4 -11 -5 -25 -2
-19 3 -23 8 -15 17 5 6 7 15 3 18 -3 4 -1 7 5 7 7 0 11 3 10 8 -5 14 74 182
83 176 5 -3 9 -9 9 -14z"/>
<path d="M2675 820 c-11 -4 -23 -6 -27 -3 -4 2 -28 -6 -53 -18 -49 -23 -94
-84 -90 -122 1 -12 3 -30 4 -39 3 -41 72 -88 151 -104 112 -22 160 -73 110
-117 -11 -9 -20 -15 -20 -13 0 3 -13 1 -30 -4 -21 -6 -30 -5 -30 3 0 7 -4 6
-10 -3 -5 -8 -10 -10 -10 -5 0 6 -18 11 -40 12 -22 2 -50 9 -63 16 -33 20 -50
15 -58 -16 -8 -29 -2 -60 10 -53 3 2 17 -1 31 -7 47 -20 110 -34 110 -25 0 5
6 6 12 2 17 -10 82 -5 86 7 2 5 8 6 13 3 6 -3 28 6 50 20 45 30 71 81 57 110
-7 13 -7 16 1 12 7 -5 7 2 0 24 -14 39 -60 77 -107 89 -20 5 -50 12 -67 17
-16 4 -32 8 -35 8 -11 2 -74 46 -66 46 5 0 3 6 -3 14 -8 10 -9 16 -1 21 6 3 8
10 5 15 -3 4 3 11 13 15 36 15 71 23 76 18 3 -3 26 -6 51 -8 25 -1 51 -7 58
-14 6 -6 16 -11 22 -11 11 0 35 41 35 60 0 16 -60 41 -105 44 -23 2 -46 6 -51
8 -5 3 -18 2 -29 -2z"/>
<path d="M3534 818 c-4 -5 -7 -120 -8 -254 l-2 -243 44 2 44 2 -1 148 c-2 130
0 146 14 141 9 -4 14 -9 11 -11 -3 -3 4 -14 15 -26 10 -11 25 -33 31 -49 7
-15 16 -28 20 -28 5 0 8 -4 8 -9 0 -16 62 -111 72 -111 25 0 48 26 98 110 30
51 60 95 67 97 7 3 11 9 8 13 -3 5 -1 11 5 15 7 4 10 -44 10 -143 l0 -148 43
0 42 1 2 50 c1 28 2 55 3 60 4 33 -1 351 -6 367 -6 19 -36 21 -64 3 -14 -9
-58 -72 -73 -105 -4 -8 -18 -33 -32 -55 -13 -22 -34 -59 -46 -82 -11 -24 -25
-43 -30 -43 -6 0 -7 -5 -3 -11 4 -7 1 -10 -6 -7 -8 2 -18 13 -24 24 -6 10 -13
21 -16 24 -3 3 -11 15 -17 28 -7 12 -19 32 -25 45 -7 12 -17 25 -23 29 -5 4
-7 8 -3 8 6 0 -30 60 -76 126 -19 27 -73 48 -82 32z"/>
<path d="M1482 805 c-4 -5 -7 -115 -7 -243 l-1 -233 23 -5 c13 -4 34 -3 48 0
23 6 25 11 25 57 0 55 10 80 49 119 l25 26 26 -26 c14 -14 49 -56 79 -93 59
-75 70 -82 124 -86 54 -4 51 9 -23 97 -6 6 -8 12 -5 12 3 0 -7 12 -22 28 -15
15 -41 45 -57 67 -17 22 -34 43 -39 46 -16 11 3 47 51 96 69 71 121 136 117
143 -2 4 -17 6 -32 4 -15 -1 -34 -2 -40 -3 -7 -1 -64 -53 -127 -116 -63 -63
-116 -115 -119 -115 -2 0 -5 50 -6 112 -1 62 -4 114 -6 116 -9 9 -77 7 -83 -3z"/>
<path d="M1986 811 c-2 -3 -3 -17 -2 -31 1 -14 -1 -35 -6 -47 -4 -13 -3 -25 2
-28 7 -4 6 -13 0 -26 -6 -11 -9 -23 -6 -27 2 -4 6 -44 7 -87 1 -44 9 -98 17
-120 18 -45 59 -95 78 -95 7 0 19 -6 26 -12 25 -24 139 -25 195 -2 46 19 64
38 93 94 19 38 22 59 22 206 1 90 -2 167 -5 170 -3 3 -23 7 -44 7 -37 2 -38 2
-40 -38 -6 -91 -6 -132 1 -143 3 -6 2 -13 -4 -17 -6 -4 -7 -11 -4 -17 7 -12 7
-58 0 -93 -3 -11 -5 -25 -5 -32 -1 -7 -13 -25 -29 -41 -24 -25 -35 -28 -86
-28 -38 1 -61 5 -64 14 -2 6 -10 12 -18 12 -8 0 -13 3 -12 8 1 4 -4 21 -11 37
-9 19 -14 85 -14 185 l-2 155 -43 1 c-23 0 -44 -2 -46 -5z"/>
<path d="M2986 810 c-13 -4 -15 -28 -12 -170 2 -148 5 -170 26 -217 13 -29 26
-51 28 -48 2 2 13 -5 24 -15 12 -10 34 -22 49 -25 16 -4 29 -10 29 -13 0 -4
19 -6 42 -5 24 1 43 2 43 3 0 1 15 3 32 5 32 3 79 31 115 67 10 10 15 18 12
18 -4 0 -2 6 4 13 18 23 25 81 26 230 1 89 -2 151 -8 155 -8 5 -42 6 -75 3
-12 -1 -21 -40 -10 -46 4 -3 6 -12 3 -19 -3 -8 -6 -74 -7 -147 -1 -96 -5 -133
-15 -137 -6 -2 -10 -8 -7 -12 9 -15 -45 -44 -84 -46 -47 -3 -101 14 -101 32 0
8 -4 14 -9 14 -15 0 -21 48 -23 208 -1 83 -4 153 -7 153 -19 5 -61 4 -75 -1z"/>
<path d="M4358 813 c-15 -4 -86 -130 -94 -168 -1 -5 -19 -46 -39 -90 -69 -150
-75 -165 -75 -175 0 -5 -4 -10 -9 -10 -4 0 -8 -10 -7 -22 2 -32 61 -37 87 -6
11 11 20 25 20 30 8 51 23 62 88 64 33 1 65 5 70 8 5 4 12 2 15 -3 4 -5 18 -8
32 -5 39 7 62 -4 79 -37 9 -16 13 -29 10 -29 -3 0 1 -10 10 -23 11 -18 25 -24
60 -26 44 -2 54 5 37 25 -5 5 -15 28 -22 52 -7 23 -16 42 -20 42 -4 0 -7 6 -7
13 0 6 -10 32 -21 56 -12 25 -22 49 -22 53 0 5 -11 26 -24 47 -14 21 -22 42
-18 45 3 4 2 10 -4 14 -5 4 -18 28 -28 54 -30 81 -60 104 -118 91z m63 -176
c7 -20 16 -37 19 -37 3 0 6 -10 7 -22 1 -11 7 -24 13 -28 7 -4 10 -16 8 -26
-3 -17 -12 -19 -81 -17 -43 1 -81 4 -84 6 -2 3 1 16 8 29 7 12 14 29 15 36 1
8 15 38 30 67 30 60 41 59 65 -8z"/>
</g>
</svg>
